<?xml version="1.0" standalone="no"?>
<!DOCTYPE svg PUBLIC "-//W3C//DTD SVG 20010904//EN"
 "http://www.w3.org/TR/2001/REC-SVG-20010904/DTD/svg10.dtd">
<svg version="1.0" xmlns="http://www.w3.org/2000/svg"
 width="1200.000000pt" height="1200.000000pt" viewBox="0 0 1200.000000 1200.000000"
 preserveAspectRatio="xMidYMid meet">
<metadata>
Created by potrace 1.11, written by Peter Selinger 2001-2013
</metadata>
<g transform="translate(0.000000,1200.000000) scale(0.100000,-0.100000)"
fill="#000000" stroke="none">
<path d="M0 6000 l0 -6000 6000 0 6000 0 0 6000 0 6000 -6000 0 -6000 0 0
-6000z m6531 374 c54 -16 149 -69 149 -84 0 -4 -22 -34 -48 -67 l-48 -60 -49
24 c-77 40 -184 37 -200 -5 -10 -26 5 -49 43 -65 20 -9 82 -35 137 -58 120
-51 167 -93 184 -166 31 -128 -47 -248 -187 -289 -73 -21 -205 -15 -281 14
-57 22 -131 67 -131 80 0 4 25 38 55 74 l56 67 46 -29 c80 -51 190 -62 226
-22 37 41 14 63 -125 118 -100 39 -132 57 -169 94 -43 43 -69 102 -69 157 0
92 87 189 200 224 44 13 154 10 211 -7z m-763 -17 c64 -24 99 -53 129 -105 25
-41 28 -57 28 -132 0 -75 -3 -91 -28 -132 -53 -91 -140 -134 -277 -137 -46 -1
-88 -5 -92 -7 -4 -3 -8 -59 -8 -125 l0 -119 -99 0 -99 0 -4 51 c-3 46 -2 550
1 680 l1 51 203 -4 c153 -4 212 -9 245 -21z"/>
<path d="M5520 6115 l0 -107 74 4 c61 3 79 7 100 27 52 49 39 148 -21 168 -15
5 -56 11 -90 12 l-63 2 0 -106z"/>
</g>
</svg>
